<svg xmlns="http://www.w3.org/2000/svg" version="1.1" width="4800" height="753" style="&#10;">
<path d="M0 0 C18.82412181 14.54078871 30.81474014 35.15798606 33.875 58.875 C33.98303517 60.28999728 34.06581441 61.7071192 34.125 63.125 C34.16496094 63.94871094 34.20492188 64.77242188 34.24609375 65.62109375 C34.81393356 88.63530737 26.66819888 110.21198683 11.125 127.125 C4.06804132 134.46651347 -3.66818682 139.79194978 -12.46289062 144.75830078 C-15.21978467 146.32035472 -17.96175101 147.90696179 -20.703125 149.49609375 C-26.27849085 152.72596382 -31.86201853 155.94142392 -37.44775391 159.15332031 C-42.92655797 162.30525232 -48.40061113 165.46540797 -53.875 168.625 C-56.04164226 169.8750423 -58.20830897 171.12504224 -60.375 172.375 C-61.4475 172.99375 -62.52 173.6125 -63.625 174.25 C-99.375 194.875 -99.375 194.875 -102.62548828 196.75024414 C-104.79057071 197.99935518 -106.95560982 199.24854129 -109.12060547 200.49780273 C-114.56115706 203.63702309 -120.00247216 206.77490563 -125.4453125 209.91015625 C-137.33291858 216.75972792 -149.20541168 223.63391959 -161.04931641 230.55883789 C-165.97720235 233.43951178 -170.91264725 236.30407748 -175.875 239.125 C-167.24807391 244.50432954 -158.53363368 249.6744377 -149.6875 254.6875 C-147.21682403 256.09265477 -144.74711894 257.49951273 -142.27734375 258.90625 C-141.65724426 259.25917618 -141.03714478 259.61210236 -140.39825439 259.97572327 C-134.16861947 263.52284038 -127.95746579 267.10174171 -121.75 270.6875 C-120.1565979 271.60789062 -120.1565979 271.60789062 -118.53100586 272.546875 C-116.38779077 273.78503976 -114.24464283 275.02332075 -112.1015625 276.26171875 C-108.83975993 278.1453505 -105.57638156 280.02622321 -102.3125 281.90625 C-91.85787049 287.92939739 -81.41451558 293.97022445 -71 300.0625 C-62.91344749 304.79205421 -54.79798963 309.46858254 -46.65933228 314.10769653 C-41.39528002 317.10889686 -36.13519534 320.11704683 -30.875 323.125 C-29.75335449 323.76566406 -28.63170898 324.40632813 -27.47607422 325.06640625 C-24.25085476 326.91236702 -21.03098319 328.76732476 -17.8125 330.625 C-16.86826172 331.16382813 -15.92402344 331.70265625 -14.95117188 332.2578125 C0.68418495 341.31984658 14.31396081 352.11354169 23.125 368.125 C23.58390625 368.93453125 24.0428125 369.7440625 24.515625 370.578125 C35.55603115 391.19575094 36.60180009 414.98107288 30 437.125 C23.29213128 458.1271678 8.55865682 475.08018307 -10.77880859 485.45947266 C-32.1449581 496.39134891 -55.0237661 497.92766837 -77.921875 491.234375 C-95.51547185 485.12675329 -111.7049444 474.14311815 -127.6796875 464.7578125 C-134.0175545 461.03474306 -140.380828 457.35669691 -146.75 453.6875 C-147.82991211 453.06512451 -148.90982422 452.44274902 -150.02246094 451.80151367 C-152.21246549 450.53954065 -154.40256984 449.27774081 -156.59277344 448.01611328 C-162.02159942 444.88819852 -167.44819281 441.75641552 -172.875 438.625 C-175.04165583 437.37498121 -177.2083225 436.12498122 -179.375 434.875 C-192.375 427.375 -205.375 419.875 -218.375 412.375 C-219.44766113 411.75616943 -220.52032227 411.13733887 -221.62548828 410.49975586 C-223.79057071 409.25064482 -225.95560982 408.00145871 -228.12060547 406.75219727 C-233.56115706 403.61297691 -239.00247216 400.47509437 -244.4453125 397.33984375 C-254.89706199 391.31752671 -265.33799548 385.27830663 -275.75 379.1875 C-284.42762241 374.11224877 -293.14105568 369.10241233 -301.875 364.125 C-311.59615617 358.5849827 -321.28394658 352.99125191 -330.94189453 347.34155273 C-338.19712229 343.09882433 -345.46897388 338.88578972 -352.75 334.6875 C-353.82024414 334.06915283 -354.89048828 333.45080566 -355.99316406 332.8137207 C-361.02426103 329.90933706 -366.06017193 327.01455577 -371.11691284 324.15507507 C-372.86734978 323.16448558 -374.61582821 322.17052264 -376.36376953 321.17553711 C-378.53802782 319.93917264 -380.71580837 318.70897054 -382.89794922 317.48657227 C-405.25958055 304.73550837 -422.41982277 287.36363803 -429.40966797 262.20019531 C-435.14371124 239.59363027 -431.95171553 216.5721506 -420.75 196.125 C-411.72335728 181.32208916 -399.89996473 171.05295357 -384.875 162.5625 C-383.84101074 161.96880615 -382.80702148 161.3751123 -381.74169922 160.76342773 C-379.55857051 159.51046604 -377.37347738 158.26092145 -375.18652344 157.01464844 C-370.85814862 154.544756 -366.54452034 152.04972986 -362.23046875 149.55493164 C-358.97043197 147.67040766 -355.70823321 145.78968199 -352.4453125 143.91015625 C-345.92013757 140.15144619 -339.3973655 136.3885825 -332.875 132.625 C-330.70834417 131.37498121 -328.5416775 130.12498122 -326.375 128.875 C-324.76625 127.946875 -324.76625 127.946875 -323.125 127 C-267.875 95.125 -212.625 63.25 -157.375 31.375 C-156.30209717 30.7560083 -155.22919434 30.1370166 -154.1237793 29.49926758 C-151.96121417 28.2516526 -149.79861661 27.00409384 -147.63598633 25.7565918 C-142.15629629 22.59556551 -136.67720642 19.43350691 -131.19921875 16.26953125 C-125.78632355 13.14324416 -120.37062097 10.02185804 -114.95410156 6.90185547 C-111.95334982 5.17021329 -108.9568492 3.43140525 -105.9609375 1.69140625 C-104.11989377 0.62742747 -102.27875318 -0.43638372 -100.4375 -1.5 C-99.62821045 -1.97268311 -98.8189209 -2.44536621 -97.98510742 -2.93237305 C-66.24503659 -21.20815521 -30.35406571 -21.08988532 0 0 Z " fill="#2B81FA" transform="translate(507.875,136.875)"/>
<path d="M0 0 C5.33375805 3.15091492 10.70412261 6.23785694 16.07373047 9.32714844 C18.25866813 10.58619043 20.44356381 11.84530529 22.62841797 13.10449219 C23.71348633 13.72952637 24.79855469 14.35456055 25.91650391 14.99853516 C31.34532989 18.12644992 36.77192328 21.25823292 42.19873047 24.38964844 C44.3653863 25.63966723 46.53205297 26.88966722 48.69873047 28.13964844 C68.19873047 39.38964844 68.19873047 39.38964844 87.69873047 50.63964844 C88.7713916 51.258479 89.84405273 51.87730957 90.94921875 52.51489258 C93.11430118 53.76400362 95.27934029 55.01318973 97.44433594 56.26245117 C102.88488753 59.40167153 108.32620263 62.53955407 113.76904297 65.67480469 C124.22079246 71.69712172 134.66172595 77.73634181 145.07373047 83.82714844 C153.75135288 88.90239967 162.46478615 93.9122361 171.19873047 98.88964844 C180.91988664 104.42966573 190.60767705 110.02339652 200.265625 115.6730957 C207.52084773 119.91582116 214.79226366 124.12962898 222.07373047 128.32714844 C223.1476001 128.9462207 224.22146973 129.56529297 225.32788086 130.203125 C229.75223543 132.7528764 234.17725634 135.30146924 238.60253906 137.84960938 C239.73127441 138.49961914 240.86000977 139.14962891 242.02294922 139.81933594 C243.70118774 140.78577026 243.70118774 140.78577026 245.41333008 141.77172852 C248.69293086 143.66276646 251.96943265 145.55908575 255.24560547 147.45605469 C258.86736084 149.55186068 262.49930739 151.62537688 266.15185547 153.66699219 C288.01173746 165.98580755 303.80906961 183.01212199 311.23388672 207.31152344 C317.64922409 231.10281507 314.04068827 254.82966259 301.85888672 276.26464844 C298.99704818 280.7897202 295.72311733 284.86659116 292.19873047 288.88964844 C291.32667969 289.90478516 291.32667969 289.90478516 290.43701172 290.94042969 C279.68201986 302.58195016 264.39833045 309.69407195 250.72998047 317.25292969 C244.52256754 320.69219683 238.38251854 324.23726962 232.26123047 327.82714844 C223.96500202 332.68914002 215.65529718 337.52591717 207.32373047 342.32714844 C206.24357666 342.94968506 205.16342285 343.57222168 204.05053711 344.21362305 C201.86076713 345.4754167 199.67090692 346.73705378 197.48095703 347.99853516 C192.05213109 351.1264499 186.6255104 354.25818575 181.19873047 357.38964844 C174.67639772 361.15328763 168.15359285 364.91609466 161.62841797 368.67480469 C151.17666847 374.69712172 140.73573499 380.73634181 130.32373047 386.82714844 C121.0537327 392.24886021 111.74041295 397.59169759 102.41027832 402.90887451 C93.28590207 408.11009973 84.19740273 413.36992721 75.13183594 418.6730957 C64.60788422 424.82731585 54.04492909 430.9133484 43.48095703 436.99853516 C39.13373684 439.50326348 34.78797576 442.01051623 30.44238281 444.51806641 C28.28400577 445.76344638 26.12547767 447.00856458 23.96679688 448.25341797 C18.44776291 451.43629123 12.93085768 454.62276651 7.41748047 457.81542969 C1.9927795 460.95569526 -3.43724639 464.0865063 -8.87304688 467.20751953 C-10.74187703 468.28107629 -12.60951618 469.35671082 -14.47558594 470.43505859 C-37.56826515 483.75515757 -60.71086848 490.95174729 -87.27783203 484.86230469 C-110.18658669 478.53826931 -128.7524639 464.86785711 -140.91064453 444.42871094 C-145.5997838 435.93382421 -149.37398145 426.50994083 -150.80126953 416.88964844 C-150.965625 415.83970703 -150.965625 415.83970703 -151.13330078 414.76855469 C-154.03952344 393.0300092 -149.20358692 369.52283995 -135.80126953 351.88964844 C-132.9261829 348.42728834 -129.90909033 345.14306084 -126.80126953 341.88964844 C-125.99109375 340.96732422 -125.99109375 340.96732422 -125.16455078 340.02636719 C-114.20626971 328.01918264 -97.28783989 320.94362762 -83.30012512 313.01409912 C-77.0743831 309.4825764 -70.87338319 305.90864624 -64.67626953 302.32714844 C-63.6124707 301.71274902 -62.54867187 301.09834961 -61.45263672 300.46533203 C-59.30799606 299.22658915 -57.16346447 297.9876574 -55.01904297 296.74853516 C-49.61456308 293.62640239 -44.20779541 290.5082364 -38.80126953 287.38964844 C-36.63459203 286.13966722 -34.46792536 284.88966723 -32.30126953 283.63964844 C6.69873047 261.13964844 6.69873047 261.13964844 9.95361328 259.26196289 C12.1041559 258.02117811 14.25454838 256.78013308 16.40478516 255.53881836 C21.4625086 252.6194537 26.5216754 249.70268635 31.58630371 246.7953186 C33.96796549 245.42790078 36.34876066 244.05897805 38.72949219 242.68994141 C40.40199068 241.72900291 42.07573383 240.77023172 43.74951172 239.81152344 C48.67486198 236.97835736 53.53136007 234.13266614 58.19873047 230.88964844 C57.13066162 230.28044556 57.13066162 230.28044556 56.04101562 229.65893555 C39.80827592 220.3977331 23.59813242 211.09884984 7.41650391 201.74853516 C3.09625404 199.252755 -1.22549941 196.75958547 -5.54736328 194.26660156 C-8.79623449 192.39255281 -12.04484586 190.51805416 -15.29345703 188.64355469 C-19.65192341 186.12895408 -24.01139144 183.61610182 -28.37158203 181.10449219 C-39.80479918 174.51665171 -51.22049241 167.90087581 -62.60888672 161.23583984 C-69.22652435 157.37066134 -75.87335749 153.56014897 -82.53588867 149.77319336 C-87.2459613 147.09551963 -91.9466321 144.40160321 -96.64453125 141.70263672 C-98.62087354 140.56757733 -100.59881381 139.43529073 -102.57910156 138.30712891 C-124.52241231 125.75060852 -141.50522483 108.78244205 -148.72705078 83.88012695 C-150.30384379 77.93931857 -151.54027174 72.03397149 -151.80126953 65.88964844 C-151.85283203 65.02726562 -151.90439453 64.16488281 -151.95751953 63.27636719 C-152.68432951 40.89667652 -144.52683785 19.62943498 -129.80126953 2.88964844 C-129.13482422 2.1278125 -128.46837891 1.36597656 -127.78173828 0.58105469 C-118.19472238 -9.68185473 -105.91478354 -16.39130154 -92.80126953 -21.11035156 C-91.85896484 -21.45066406 -90.91666016 -21.79097656 -89.94580078 -22.14160156 C-56.37676004 -31.92690898 -27.88383611 -16.55777123 0 0 Z " fill="#00A04F" transform="translate(817.80126953125,145.1103515625)"/>
<path d="M0 0 C17.32897989 14.53051108 28.35347861 34.29024048 31.265625 56.859375 C31.37366017 58.27437228 31.45643941 59.6914942 31.515625 61.109375 C31.55558594 61.93308594 31.59554688 62.75679688 31.63671875 63.60546875 C32.20455856 86.61968237 24.05882388 108.19636183 8.515625 125.109375 C1.45866632 132.45088847 -6.27756182 137.77632478 -15.07226562 142.74267578 C-17.82915967 144.30472972 -20.57112601 145.89133679 -23.3125 147.48046875 C-28.88786585 150.71033882 -34.47139353 153.92579892 -40.05712891 157.13769531 C-45.53593297 160.28962732 -51.00998613 163.44978297 -56.484375 166.609375 C-58.65101726 167.8594173 -60.81768397 169.10941724 -62.984375 170.359375 C-64.056875 170.978125 -65.129375 171.596875 -66.234375 172.234375 C-101.984375 192.859375 -101.984375 192.859375 -105.23486328 194.73461914 C-107.39994571 195.98373018 -109.56498482 197.23291629 -111.72998047 198.48217773 C-117.17053206 201.62139809 -122.61184716 204.75928063 -128.0546875 207.89453125 C-139.94229358 214.74410292 -151.81478668 221.61829459 -163.65869141 228.54321289 C-165.46845559 229.60113925 -167.28047238 230.65522605 -169.09521484 231.70458984 C-170.59097264 232.58406975 -172.07331096 233.48726505 -173.53369141 234.42431641 C-176.10524417 236.04339094 -177.91363902 237.11381307 -180.99609375 237.08984375 C-184.26491836 235.80181396 -187.27000158 234.18829428 -190.296875 232.421875 C-190.98064209 232.03032227 -191.66440918 231.63876953 -192.36889648 231.23535156 C-194.74627408 229.86939643 -197.11602092 228.49091488 -199.484375 227.109375 C-200.38220703 226.58585449 -201.28003906 226.06233398 -202.20507812 225.52294922 C-206.18098388 223.20276498 -210.15598125 220.8810511 -214.12841797 218.55493164 C-221.1909061 214.42564091 -228.29140922 210.37000132 -235.421875 206.359375 C-242.70658943 202.26168486 -249.94812365 198.10463548 -257.13891602 193.84448242 C-263.56541348 190.04342094 -270.04646457 186.34069601 -276.53637695 182.64916992 C-280.8656269 180.18475458 -285.18529693 177.70701781 -289.48046875 175.18359375 C-315.79934542 159.72681179 -340.1343654 148.98902038 -371.25390625 156.2421875 C-375.69731988 157.4349781 -380.11693293 158.66041187 -384.484375 160.109375 C-381.9760238 157.29153463 -379.18514562 155.65213777 -375.91015625 153.80859375 C-374.21511963 152.8484436 -374.21511963 152.8484436 -372.48583984 151.86889648 C-371.58487579 151.36288406 -371.58487579 151.36288406 -370.66571045 150.84664917 C-367.47339302 149.05344026 -364.29020854 147.24412066 -361.10546875 145.4375 C-360.45894348 145.07136093 -359.81241821 144.70522186 -359.14630127 144.32798767 C-353.18805697 140.95080246 -347.2687549 137.50881533 -341.359375 134.046875 C-329.8561248 127.31648387 -318.31513496 120.65281395 -306.76660156 114.00048828 C-301.33777558 110.87257352 -295.91118219 107.74079052 -290.484375 104.609375 C-288.31771917 103.35935621 -286.1510525 102.10935622 -283.984375 100.859375 C-282.911875 100.240625 -281.839375 99.621875 -280.734375 98.984375 C-234.15104167 72.109375 -187.56770833 45.234375 -140.984375 18.359375 C-139.37405396 17.43016235 -139.37405396 17.43016235 -137.73120117 16.48217773 C-135.57553689 15.2387684 -133.4194529 13.9960864 -131.26293945 12.75415039 C-126.25981331 9.8717049 -121.26070824 6.98303508 -116.27731323 4.06661987 C-114.53555648 3.04777282 -112.79240575 2.0313523 -111.04882812 1.015625 C-108.87938314 -0.24915264 -106.71248693 -1.51831797 -104.54882812 -2.79296875 C-70.62586551 -22.5283704 -32.1926864 -24.86740446 0 0 Z " fill="#FC2C25" transform="translate(510.484375,138.890625)"/>
<path d="M0 0 C1.00160156 0.56976563 2.00320313 1.13953125 3.03515625 1.7265625 C3.61813477 2.04818359 4.20111328 2.36980469 4.80175781 2.70117188 C6.92061421 3.88533316 9.00760918 5.11728625 11.09765625 6.3515625 C12.87432945 7.37616362 14.65172059 8.39952046 16.4296875 9.421875 C20.50468958 11.77686189 24.56644201 14.15312437 28.62109375 16.54296875 C35.04939145 20.33055208 41.50686998 24.06592358 47.97265625 27.7890625 C49.05192383 28.41103516 50.13119141 29.03300781 51.24316406 29.67382812 C53.43380591 30.9362319 55.62456125 32.19843873 57.81542969 33.46044922 C62.16264987 35.96517754 66.50841096 38.47243029 70.85400391 40.97998047 C73.01238094 42.22536045 75.17090905 43.47047864 77.32958984 44.71533203 C82.84862381 47.8982053 88.36552904 51.08468057 93.87890625 54.27734375 C103.61272961 59.9111606 113.34787823 65.54264058 123.16015625 71.0390625 C123.84335937 71.42489502 124.5265625 71.81072754 125.23046875 72.20825195 C145.94209375 83.72471839 167.12339839 85.92638241 190.09765625 80.3515625 C191.71557878 79.80754488 193.32430511 79.23299314 194.91015625 78.6015625 C198.09765625 77.3515625 198.09765625 77.3515625 201.09765625 78.3515625 C187.95295847 86.13219837 174.72956567 93.77349706 161.49267578 101.39599609 C156.02595645 104.54488304 150.56190738 107.69839514 145.09765625 110.8515625 C142.93100314 112.101586 140.76433646 113.35158597 138.59765625 114.6015625 C137.52515625 115.2203125 136.45265625 115.8390625 135.34765625 116.4765625 C125.59765625 122.1015625 125.59765625 122.1015625 122.34716797 123.97680664 C120.18208554 125.22591768 118.01704643 126.47510379 115.85205078 127.72436523 C110.41149919 130.86358559 104.97018409 134.00146813 99.52734375 137.13671875 C89.07559426 143.15903579 78.63466077 149.19825587 68.22265625 155.2890625 C58.95265848 160.71077428 49.63933873 166.05361165 40.3092041 171.37078857 C31.18482785 176.57201379 22.09632851 181.83184128 13.03076172 187.13500977 C2.50681 193.28922992 -8.05614512 199.37526246 -18.62011719 205.46044922 C-22.96733737 207.96517754 -27.31309846 210.47243029 -31.65869141 212.97998047 C-33.81706844 214.22536045 -35.97559655 215.47047864 -38.13427734 216.71533203 C-43.65331131 219.8982053 -49.17021654 223.08468057 -54.68359375 226.27734375 C-60.10829472 229.41760933 -65.5383206 232.54842036 -70.97412109 235.66943359 C-72.84295125 236.74299035 -74.7105904 237.81862488 -76.57666016 238.89697266 C-99.66933937 252.21707163 -122.8119427 259.41366136 -149.37890625 253.32421875 C-172.2876609 247.00018337 -190.85353812 233.32977118 -203.01171875 212.890625 C-207.70085802 204.39573827 -211.47505567 194.97185489 -212.90234375 185.3515625 C-213.01191406 184.65160156 -213.12148438 183.95164062 -213.234375 183.23046875 C-216.14059766 161.49192327 -211.30466114 137.98475401 -197.90234375 120.3515625 C-195.02725712 116.88920241 -192.01016455 113.60497491 -188.90234375 110.3515625 C-188.36222656 109.73667969 -187.82210937 109.12179687 -187.265625 108.48828125 C-176.30734393 96.4810967 -159.38891411 89.40554168 -145.40119934 81.47601318 C-139.17545731 77.94449046 -132.97445741 74.3705603 -126.77734375 70.7890625 C-125.71354492 70.17466309 -124.64974609 69.56026367 -123.55371094 68.92724609 C-121.40907028 67.68850321 -119.26453869 66.44957146 -117.12011719 65.21044922 C-111.7156373 62.08831645 -106.30886963 58.97015046 -100.90234375 55.8515625 C-98.73566625 54.60158128 -96.56899958 53.35158129 -94.40234375 52.1015625 C-81.40234375 44.6015625 -68.40234375 37.1015625 -55.40234375 29.6015625 C-54.32831299 28.98192627 -53.25428223 28.36229004 -52.14770508 27.72387695 C-49.99651151 26.48280996 -47.8453072 25.24176157 -45.6940918 24.00073242 C-40.64271376 21.08657906 -35.59144065 18.17224432 -30.54055786 15.25723267 C-28.75167457 14.22482772 -26.96275658 13.19248294 -25.17382812 12.16015625 C-22.92896739 10.86470302 -20.68417185 9.5691368 -18.43945312 8.2734375 C-16.45481156 7.12820996 -14.46699858 5.98845221 -12.4753418 4.85546875 C-10.89803367 3.93353896 -9.34071347 2.97481181 -7.82348633 1.95703125 C-4.88050835 0.01567022 -3.51658814 -0.78567111 0 0 Z " fill="#FEB900" transform="translate(879.90234375,376.6484375)"/>
<path d="M0 0 C5.13529659 4.43764425 5.13529659 4.43764425 7.0390625 6.53515625 C7.0390625 9.53515625 7.0390625 9.53515625 4.8359375 12.07885742 C3.82797819 13.0863414 2.81175328 14.08559818 1.7890625 15.078125 C1.25635742 15.60658524 0.72365234 16.13504547 0.17480469 16.67951965 C-1.53020779 18.3677236 -3.24534877 20.0452077 -4.9609375 21.72265625 C-6.11786928 22.86454403 -7.27412815 24.00711401 -8.4296875 25.15039062 C-11.26568661 27.95329166 -14.11081426 30.74662145 -16.9609375 33.53515625 C-20.15906053 32.01184522 -22.34107343 30.37425752 -24.8984375 27.91015625 C-41.38293179 13.0687243 -62.49428515 7.07017776 -84.31640625 7.32421875 C-107.46735815 8.66414523 -128.85470127 17.58122338 -144.9609375 34.53515625 C-162.71377119 54.87508631 -168.38483691 79.04246147 -166.9609375 105.53515625 C-164.70463215 129.03202739 -152.92932753 150.36554513 -134.9609375 165.53515625 C-127.23461218 171.13270313 -118.96835431 175.41805757 -109.9609375 178.53515625 C-108.29804687 179.12490234 -108.29804687 179.12490234 -106.6015625 179.7265625 C-84.54382921 186.40437838 -59.73468224 184.18267663 -39.36474609 173.60400391 C-34.54900927 170.98287236 -30.13661695 168.10024106 -25.9609375 164.53515625 C-25.373125 164.08914063 -24.7853125 163.643125 -24.1796875 163.18359375 C-10.27894474 152.27029132 -5.72670464 134.73876451 -0.9609375 118.53515625 C-27.6909375 118.53515625 -54.4209375 118.53515625 -81.9609375 118.53515625 C-81.9609375 107.64515625 -81.9609375 96.75515625 -81.9609375 85.53515625 C-43.6809375 85.53515625 -5.4009375 85.53515625 34.0390625 85.53515625 C36.46966259 103.76465694 36.46966259 103.76465694 36.0390625 110.53515625 C35.99797363 111.18403809 35.95688477 111.83291992 35.91455078 112.50146484 C34.20487841 137.13057892 27.29419191 160.49264472 11.0390625 179.53515625 C10.26949219 180.46585938 9.49992187 181.3965625 8.70703125 182.35546875 C-10.47093166 204.60066644 -37.23832355 215.59522976 -65.8984375 219.28515625 C-67.58394858 219.40200277 -69.27232161 219.47879077 -70.9609375 219.53515625 C-71.96616455 219.57382812 -71.96616455 219.57382812 -72.99169922 219.61328125 C-91.71642684 220.24680978 -109.33039243 217.92886098 -126.9609375 211.53515625 C-127.99347656 211.16648437 -129.02601562 210.7978125 -130.08984375 210.41796875 C-158.57687012 199.41765231 -182.10624463 176.0123735 -195.06591797 148.56835938 C-209.10252991 116.68158789 -209.51820593 80.52424522 -197.2734375 48.09765625 C-192.05860086 35.2669677 -185.15378647 23.90615013 -175.9609375 13.53515625 C-175.34992188 12.78105469 -174.73890625 12.02695312 -174.109375 11.25 C-155.47269052 -11.23297894 -125.26583321 -24.98844205 -96.61767578 -28.23779297 C-60.65702548 -31.31107038 -27.89420452 -23.22063727 0 0 Z " fill="#FFFFFF" transform="translate(2031.9609375,259.46484375)"/>
<path d="M0 0 C5.13529659 4.43764425 5.13529659 4.43764425 7.0390625 6.53515625 C7.0390625 9.53515625 7.0390625 9.53515625 4.8359375 12.07885742 C3.82797819 13.0863414 2.81175328 14.08559818 1.7890625 15.078125 C1.25635742 15.60658524 0.72365234 16.13504547 0.17480469 16.67951965 C-1.53020779 18.3677236 -3.24534877 20.0452077 -4.9609375 21.72265625 C-6.11786928 22.86454403 -7.27412815 24.00711401 -8.4296875 25.15039062 C-11.26568661 27.95329166 -14.11081426 30.74662145 -16.9609375 33.53515625 C-20.15906053 32.01184522 -22.34107343 30.37425752 -24.8984375 27.91015625 C-41.38293179 13.0687243 -62.49428515 7.07017776 -84.31640625 7.32421875 C-107.46735815 8.66414523 -128.85470127 17.58122338 -144.9609375 34.53515625 C-162.71377119 54.87508631 -168.38483691 79.04246147 -166.9609375 105.53515625 C-164.70463215 129.03202739 -152.92932753 150.36554513 -134.9609375 165.53515625 C-127.23461218 171.13270313 -118.96835431 175.41805757 -109.9609375 178.53515625 C-108.29804687 179.12490234 -108.29804687 179.12490234 -106.6015625 179.7265625 C-84.54382921 186.40437838 -59.73468224 184.18267663 -39.36474609 173.60400391 C-34.54900927 170.98287236 -30.13661695 168.10024106 -25.9609375 164.53515625 C-25.373125 164.08914063 -24.7853125 163.643125 -24.1796875 163.18359375 C-10.27894474 152.27029132 -5.72670464 134.73876451 -0.9609375 118.53515625 C-27.6909375 118.53515625 -54.4209375 118.53515625 -81.9609375 118.53515625 C-81.9609375 107.64515625 -81.9609375 96.75515625 -81.9609375 85.53515625 C-43.6809375 85.53515625 -5.4009375 85.53515625 34.0390625 85.53515625 C36.46966259 103.76465694 36.46966259 103.76465694 36.0390625 110.53515625 C35.99797363 111.18403809 35.95688477 111.83291992 35.91455078 112.50146484 C34.20487841 137.13057892 27.29419191 160.49264472 11.0390625 179.53515625 C10.26949219 180.46585938 9.49992187 181.3965625 8.70703125 182.35546875 C-10.47093166 204.60066644 -37.23832355 215.59522976 -65.8984375 219.28515625 C-67.58394858 219.40200277 -69.27232161 219.47879077 -70.9609375 219.53515625 C-71.96616455 219.57382812 -71.96616455 219.57382812 -72.99169922 219.61328125 C-91.71642684 220.24680978 -109.33039243 217.92886098 -126.9609375 211.53515625 C-127.99347656 211.16648437 -129.02601562 210.7978125 -130.08984375 210.41796875 C-158.57687012 199.41765231 -182.10624463 176.0123735 -195.06591797 148.56835938 C-209.10252991 116.68158789 -209.51820593 80.52424522 -197.2734375 48.09765625 C-192.05860086 35.2669677 -185.15378647 23.90615013 -175.9609375 13.53515625 C-175.34992188 12.78105469 -174.73890625 12.02695312 -174.109375 11.25 C-155.47269052 -11.23297894 -125.26583321 -24.98844205 -96.61767578 -28.23779297 C-60.65702548 -31.31107038 -27.89420452 -23.22063727 0 0 Z " fill="#FFFFFF" transform="translate(1523.9609375,259.46484375)"/>
<path d="M0 0 C6.0129179 5.18239536 11.08789591 10.79315631 15.8125 17.1875 C16.71355469 18.36699219 16.71355469 18.36699219 17.6328125 19.5703125 C37.29516152 46.28641902 44.31239965 79.97179847 39.98803711 112.62353516 C35.09991924 144.62147687 18.93302675 174.39117793 -7.1574707 194.13012695 C-35.72959212 214.83933052 -69.71275565 221.84439787 -104.40795898 216.66577148 C-135.00066001 211.52877895 -163.36608827 193.99479115 -181.6171875 168.890625 C-202.43128336 139.37548945 -208.84088086 104.60861389 -203.1875 69.1875 C-197.65684526 38.36149086 -179.47095969 9.7177296 -153.74267578 -8.22558594 C-106.04572099 -40.21318858 -43.91650741 -36.86803415 0 0 Z M-142.1875 30.1875 C-143.34378906 31.32638672 -143.34378906 31.32638672 -144.5234375 32.48828125 C-161.13287915 49.80631682 -167.77542227 72.97950397 -167.60693359 96.5246582 C-166.80505273 123.45492163 -156.04795644 145.39231028 -136.5 163.8125 C-117.22926096 179.99228882 -93.58915183 183.75352473 -69.1875 182.1875 C-63.63080758 181.49357358 -58.47454608 180.04100466 -53.1875 178.1875 C-52.12789062 177.82527344 -51.06828125 177.46304688 -49.9765625 177.08984375 C-29.85196984 169.45905347 -14.13009975 153.85980425 -4.8125 134.6875 C5.26908247 111.13532851 6.98320991 84.20946167 -1.99658203 60.00683594 C-6.19510977 49.5279427 -11.82069677 40.70079248 -19.1875 32.1875 C-19.75984375 31.51460938 -20.3321875 30.84171875 -20.921875 30.1484375 C-35.26501454 14.59820206 -57.18929069 6.20291378 -77.95703125 5.03125 C-102.35057574 4.30936952 -124.86279146 12.89176254 -142.1875 30.1875 Z " fill="#FFFFFF" transform="translate(2378.1875,260.8125)"/>
<path d="M0 0 C98.54413255 0 98.54413255 0 113.625 4.25 C114.41148926 4.46615967 115.19797852 4.68231934 116.00830078 4.9050293 C143.4876896 12.70188198 167.17364178 29.24546838 181.47265625 54.2890625 C186.9889622 64.20841325 191.36294144 73.95219877 194 85 C194.31710937 86.27746094 194.63421875 87.55492187 194.9609375 88.87109375 C199.26622127 108.54968005 199.1476508 132.57176955 194 152 C193.83371094 152.64710938 193.66742187 153.29421875 193.49609375 153.9609375 C185.9196826 182.80742142 168.66392665 206.67128286 142.86035156 221.93603516 C99.8648737 246.52583733 47.21071279 237 0 237 C0 158.79 0 80.58 0 0 Z M38 36 C38 90.78 38 145.56 38 202 C93.09220822 204.11118023 93.09220822 204.11118023 138.53125 179.59765625 C154.15612764 163.15692266 159.64802159 141.12270647 160.25 119 C159.53032292 93.98063781 152.82998722 71.90989175 134.25 54.3125 C106.92523031 30.73084945 72.85831781 36 38 36 Z " fill="#FFFFFF" transform="translate(1600,236)"/>
<path d="M0 0 C7.96075541 5.96724404 13.76827295 11.85235173 18.33984375 20.75390625 C19.07847656 19.90828125 19.81710938 19.06265625 20.578125 18.19140625 C26.91445838 11.05829473 33.20893736 4.88184878 41.33984375 -0.24609375 C41.96761719 -0.65214844 42.59539063 -1.05820312 43.2421875 -1.4765625 C58.81957048 -10.37305475 80.08291164 -10.67275301 96.99584961 -6.08740234 C102.7142987 -4.3391717 107.55066346 -1.78901895 112.33984375 1.75390625 C112.97148437 2.20507812 113.603125 2.65625 114.25390625 3.12109375 C126.49834948 12.66852305 131.73239378 27.9848285 134.33984375 42.75390625 C134.70374808 47.01861113 134.72223886 51.24262749 134.68041992 55.52075195 C134.680858 56.72233948 134.68129608 57.923927 134.68174744 59.16192627 C134.68003336 62.41121372 134.66513988 65.66009754 134.64402556 68.90930581 C134.62508599 72.32185835 134.62349488 75.73442144 134.61994934 79.14701843 C134.61067903 85.5888244 134.58613436 92.03047498 134.55590087 98.47221297 C134.52219927 105.81455343 134.50583152 113.15690187 134.49081457 120.4993006 C134.45957934 135.58426956 134.40463131 150.66903706 134.33984375 165.75390625 C122.45984375 165.75390625 110.57984375 165.75390625 98.33984375 165.75390625 C98.31796997 160.80438965 98.31796997 160.80438965 98.2956543 155.75488281 C98.24519675 144.82244341 98.17858199 133.89014477 98.10412884 122.95784378 C98.05950343 116.33307372 98.02022995 109.70836406 97.9934082 103.08349609 C97.96729732 96.68374988 97.92683964 90.28423705 97.87665749 83.88463593 C97.8600414 81.44959172 97.84849453 79.0145072 97.84222984 76.57941437 C97.83253159 73.15458518 97.80440345 69.73034604 97.7722168 66.30566406 C97.77365189 65.3108754 97.77508698 64.31608673 97.77656555 63.29115295 C97.6331636 52.42042107 95.66072682 42.12062976 88.33984375 33.75390625 C80.6813094 26.5707292 71.48347743 26.19496746 61.50390625 26.453125 C51.14819695 27.01709572 44.19260187 32.2253571 37.33984375 39.75390625 C28.63775534 51.16372603 26.22598061 64.43947016 26.13452148 78.45288086 C26.12462189 79.39999939 26.11472229 80.34711792 26.10452271 81.32293701 C26.07309289 84.43401646 26.04822393 87.54511114 26.0234375 90.65625 C26.00285196 92.82101321 25.98185508 94.98577255 25.96046448 97.15052795 C25.90540902 102.83367769 25.85592717 108.5168627 25.80761719 114.20007324 C25.75728114 120.00515869 25.70165839 125.81019325 25.64648438 131.61523438 C25.53910506 142.9947497 25.43810443 154.37430853 25.33984375 165.75390625 C13.45984375 165.75390625 1.57984375 165.75390625 -10.66015625 165.75390625 C-10.67473877 162.52005127 -10.68932129 159.28619629 -10.7043457 155.9543457 C-10.75482978 145.23345542 -10.82144901 134.51270828 -10.89587116 123.79195881 C-10.94047428 117.29613311 -10.97975252 110.80036867 -11.0065918 104.30444336 C-11.03272513 98.02788376 -11.07319822 91.75156122 -11.12334251 85.47514915 C-11.13994356 83.08838044 -11.15149971 80.70157079 -11.15777016 78.31475258 C-10.70175494 54.63011678 -10.70175494 54.63011678 -20.66015625 33.75390625 C-28.45552224 27.03594857 -37.75226699 26.19106144 -47.7109375 26.44140625 C-53.03070799 26.86235743 -57.0549298 28.10693825 -61.66015625 30.75390625 C-62.36527344 31.15480469 -63.07039063 31.55570312 -63.796875 31.96875 C-74.48629661 38.99322706 -79.5912125 52.17456565 -82.22301865 64.22140312 C-82.94985295 68.43222855 -82.96869306 72.59937607 -82.97900391 76.86352539 C-82.99407234 78.31390198 -82.99407234 78.31390198 -83.00944519 79.7935791 C-83.04009676 82.95873472 -83.05726193 86.12380647 -83.07421875 89.2890625 C-83.09294491 91.49581108 -83.11251939 93.70255261 -83.13290405 95.9092865 C-83.18407821 101.69432403 -83.22378252 107.47938474 -83.26104736 113.26452637 C-83.30117952 119.17705957 -83.35222973 125.08949759 -83.40234375 131.00195312 C-83.49892875 142.58587705 -83.58237902 154.16984076 -83.66015625 165.75390625 C-95.87015625 165.75390625 -108.08015625 165.75390625 -120.66015625 165.75390625 C-120.66015625 109.98390625 -120.66015625 54.21390625 -120.66015625 -3.24609375 C-109.11015625 -3.24609375 -97.56015625 -3.24609375 -85.66015625 -3.24609375 C-85.33015625 4.01390625 -85.00015625 11.27390625 -84.66015625 18.75390625 C-83.58765625 17.28953125 -82.51515625 15.82515625 -81.41015625 14.31640625 C-62.75548703 -8.91145349 -25.52235716 -16.9441273 0 0 Z " fill="#FFFFFF" transform="translate(3260.66015625,307.24609375)"/>
<path d="M0 0 C19.80377433 15.5620758 31.14244397 37.13529176 34.2734375 62.03125 C34.54776109 64.96613658 34.73857175 67.88755795 34.87109375 70.83203125 C34.91234375 71.61449219 34.95359375 72.39695312 34.99609375 73.203125 C35.7102901 99.67302739 26.8306059 124.9155153 8.62890625 144.23046875 C-7.69609676 159.63054242 -28.06516203 166.29739257 -50.13671875 166.03515625 C-66.75257045 165.18973131 -83.29290014 158.87715407 -95.12890625 146.83203125 C-96.19058638 145.46380087 -97.2355569 144.08250613 -98.26708984 142.69140625 C-99.07247696 141.60811035 -99.07247696 141.60811035 -99.89413452 140.50292969 C-100.30160919 139.9515332 -100.70908386 139.40013672 -101.12890625 138.83203125 C-101.05744385 139.83782227 -100.98598145 140.84361328 -100.91235352 141.87988281 C-99.80865346 159.25328323 -100.01338249 176.6462277 -100.0602417 194.04534912 C-100.07245886 199.07264948 -100.07689409 204.09996249 -100.08269501 209.12727356 C-100.09226842 216.69555161 -100.11147674 224.26374893 -100.12890625 231.83203125 C-112.33890625 231.83203125 -124.54890625 231.83203125 -137.12890625 231.83203125 C-137.12890625 152.30203125 -137.12890625 72.77203125 -137.12890625 -9.16796875 C-125.57890625 -9.16796875 -114.02890625 -9.16796875 -102.12890625 -9.16796875 C-101.79890625 -1.90796875 -101.46890625 5.35203125 -101.12890625 12.83203125 C-99.14890625 10.19203125 -97.16890625 7.55203125 -95.12890625 4.83203125 C-70.58286545 -21.66767402 -27.87333125 -19.31298232 0 0 Z M-72.12890625 23.83203125 C-72.97710938 24.25613281 -73.8253125 24.68023437 -74.69921875 25.1171875 C-87.60024755 32.1989449 -95.84533595 43.39047235 -100.56640625 57.20703125 C-104.69787924 73.33944958 -103.5611638 91.42575578 -95.44140625 106.08203125 C-87.2417452 118.5660152 -77.06631015 127.19411373 -62.515625 131.171875 C-48.9746263 133.81135456 -36.01739939 131.08381123 -24.46875 123.578125 C-12.59601963 114.71817429 -5.04674938 102.64327943 -2.421875 88.00537109 C0.06399519 69.56435738 -3.61724928 53.41074501 -13.4609375 37.70703125 C-20.27103763 28.81892474 -32.23805363 21.73982562 -43.12890625 19.83203125 C-53.32196209 18.79187516 -62.86276866 19.08054536 -72.12890625 23.83203125 Z " fill="#FFFFFF" transform="translate(3570.12890625,313.16796875)"/>
<path d="M0 0 C115.92960859 0 115.92960859 0 138.69140625 21.6328125 C152.59959819 35.89400423 159.67615974 52.9036062 160.1875 72.75 C159.91181595 92.53798863 152.88190057 110.0328289 139.0234375 124.171875 C121.97310623 140.65199847 100.03171961 146.20949885 76.96484375 146.09765625 C75.97133911 146.09664917 74.97783447 146.09564209 73.95422363 146.09460449 C70.28197049 146.08941591 66.60973395 146.07545503 62.9375 146.0625 C54.708125 146.041875 46.47875 146.02125 38 146 C38 176.03 38 206.06 38 237 C25.46 237 12.92 237 0 237 C0 158.79 0 80.58 0 0 Z M38 36 C38 60.42 38 84.84 38 110 C46.683125 110.0825 55.36625 110.165 64.3125 110.25 C68.39105347 110.30462402 68.39105347 110.30462402 72.55200195 110.36035156 C74.73908705 110.37204847 76.92618095 110.38223791 79.11328125 110.390625 C80.77780334 110.4213208 80.77780334 110.4213208 82.47595215 110.45263672 C94.55043472 110.45796703 104.07508265 106.82851479 112.68359375 98.33984375 C119.19837489 91.2077018 122.91836075 82.78512916 123.03515625 73.078125 C122.41361662 61.13243647 117.44076256 51.83461055 108.6875 43.75 C102.29016133 38.53261491 94.78588505 35.8673227 86.58886719 35.88647461 C85.49300293 35.88659546 84.39713867 35.88671631 83.26806641 35.88684082 C81.54982666 35.89451477 81.54982666 35.89451477 79.796875 35.90234375 C78.21060303 35.90385437 78.21060303 35.90385437 76.59228516 35.90539551 C72.64484573 35.91062447 68.69742177 35.92458574 64.75 35.9375 C55.9225 35.958125 47.095 35.97875 38 36 Z " fill="#FFFFFF" transform="translate(4155,236)"/>
<path d="M0 0 C4.6891953 4.00561483 9.02708143 8.34224728 13.25390625 12.83203125 C11.94119711 15.73424453 10.53491643 17.79915417 8.27734375 20.0390625 C7.40021729 20.91473877 7.40021729 20.91473877 6.50537109 21.80810547 C5.8861377 22.41412598 5.2669043 23.02014648 4.62890625 23.64453125 C3.68265381 24.57676514 3.68265381 24.57676514 2.71728516 25.52783203 C0.90428041 27.30451148 -0.91819728 29.0706895 -2.74609375 30.83203125 C-3.59171875 31.64800781 -4.43734375 32.46398437 -5.30859375 33.3046875 C-10.21708964 37.83203125 -10.21708964 37.83203125 -14.74609375 37.83203125 C-16.83203125 35.9609375 -16.83203125 35.9609375 -19.12109375 33.39453125 C-33.7802429 18.17488522 -53.48972635 10.92819208 -74.43359375 10.51953125 C-97.01531845 11.21822323 -118.85953106 18.45836322 -135.40625 34.26171875 C-153.91233219 54.5906037 -160.872684 79.11764223 -159.8984375 106.21630859 C-158.53262625 129.66711267 -148.24488742 150.13343319 -131.53515625 166.4140625 C-111.52073559 183.76550002 -87.25269512 187.54707331 -61.74609375 185.83203125 C-40.19494979 183.42851067 -21.22279633 170.19908606 -7.74609375 153.83203125 C-4.71631946 155.18434312 -2.66136762 156.68683668 -0.35546875 159.0625 C0.26835693 159.69792725 0.89218262 160.33335449 1.53491211 160.98803711 C2.18468018 161.65843018 2.83444824 162.32882324 3.50390625 163.01953125 C8.58376208 168.18789274 13.69098009 173.17733793 19.25390625 177.83203125 C17.34329937 188.28282069 4.43787976 196.22636305 -3.8125 201.96484375 C-35.21033843 222.00601721 -70.82571967 227.1800216 -107.07226562 219.328125 C-136.71273524 212.28949105 -163.75198198 192.6949826 -179.74609375 166.83203125 C-198.25247128 135.60422263 -203.57222346 99.66944016 -194.62109375 64.33203125 C-189.17042034 44.22752703 -179.2685782 26.75513596 -164.74609375 11.83203125 C-163.9778125 11.001875 -163.20953125 10.17171875 -162.41796875 9.31640625 C-121.32368504 -33.89887274 -45.64196363 -37.73454935 0 0 Z " fill="#FFFFFF" transform="translate(2912.74609375,256.16796875)"/>
<path d="M0 0 C12.53483088 10.59042187 19.18831251 24.93078121 21.40625 41.00390625 C21.65761858 45.00401946 21.66062407 48.98598321 21.63330078 52.99291992 C21.63359283 54.13569397 21.63388489 55.27846802 21.63418579 56.45587158 C21.63280386 60.19461941 21.61729642 63.93316242 21.6015625 67.671875 C21.59782833 70.2793212 21.59498327 72.88676881 21.59298706 75.49421692 C21.58680135 81.63147237 21.57043045 87.76865553 21.55028808 93.90587932 C21.52783786 100.89994516 21.51691284 107.89401468 21.50689721 114.88810766 C21.4860612 129.26008555 21.44942191 143.6319785 21.40625 158.00390625 C9.85625 158.00390625 -1.69375 158.00390625 -13.59375 158.00390625 C-13.59375 151.40390625 -13.59375 144.80390625 -13.59375 138.00390625 C-17.0624831 141.45859082 -17.0624831 141.45859082 -20.4453125 144.99609375 C-31.80971023 157.06137944 -46.51159495 163.22288207 -62.99609375 164.20703125 C-83.21630816 164.47514459 -100.31753982 159.60371477 -115.59375 146.00390625 C-126.69491605 134.54535859 -130.01344807 119.99285626 -129.95947266 104.60986328 C-129.67734372 90.58883153 -124.59274115 79.10978688 -115.09375 68.87890625 C-96.9328718 51.63825139 -73.59706435 49.29958713 -49.67382812 49.86767578 C-37.40604283 50.4102744 -26.05531134 53.78298191 -14.59375 58.00390625 C-14.22644254 46.61737489 -15.74547165 36.10558071 -23.59375 27.37890625 C-33.81166625 17.79686891 -46.42245279 15.5296046 -59.88671875 15.7578125 C-74.29258188 16.71415536 -86.73337034 23.66807852 -96.59375 34.00390625 C-97.08875 34.99390625 -97.08875 34.99390625 -97.59375 36.00390625 C-100.74070837 35.39795399 -102.73248724 34.39305715 -105.2734375 32.45703125 C-105.95535156 31.94140625 -106.63726563 31.42578125 -107.33984375 30.89453125 C-108.04238281 30.353125 -108.74492187 29.81171875 -109.46875 29.25390625 C-110.16355469 28.72796875 -110.85835937 28.20203125 -111.57421875 27.66015625 C-115.67128987 24.54298726 -119.66440701 21.32968244 -123.59375 18.00390625 C-122.50327845 10.99602289 -115.85494174 5.84149742 -110.6328125 1.59765625 C-79.24157875 -21.03503574 -31.61495249 -24.33018181 0 0 Z M-86.90625 89.37890625 C-92.82335373 96.92442272 -93.44446371 103.55020036 -92.59375 113.00390625 C-90.73716853 119.66575742 -86.38366312 125.38724526 -80.67578125 129.328125 C-71.00169085 134.52239709 -59.99527631 135.26552571 -49.39453125 132.875 C-35.64408857 128.59836301 -25.48763001 120.93163624 -18.59375 108.19140625 C-15.51588174 101.5939051 -14.18205679 95.23167535 -13.59375 88.00390625 C-18.09567591 84.70483867 -22.25599307 82.87659648 -27.59375 81.31640625 C-28.27953125 81.10435547 -28.9653125 80.89230469 -29.671875 80.67382812 C-37.42122311 78.32979821 -44.710288 77.79564361 -52.78125 77.75390625 C-54.24788086 77.72296875 -54.24788086 77.72296875 -55.74414062 77.69140625 C-67.67733434 77.62830939 -78.65161986 80.35546252 -86.90625 89.37890625 Z " fill="#FFFFFF" transform="translate(3080.59375,314.99609375)"/>
<path d="M0 0 C12.21 0 24.42 0 37 0 C37.0093457 3.29444092 37.01869141 6.58888184 37.02832031 9.9831543 C37.06218277 20.90363203 37.11778329 31.82392264 37.18390274 42.7442503 C37.22330569 49.36116676 37.25552955 55.97795156 37.27099609 62.5949707 C37.28620973 68.98828613 37.32073936 75.38123943 37.36830902 81.77439308 C37.38307424 84.2058172 37.3910382 86.63729303 37.39188385 89.06876183 C36.92040529 111.00169559 36.92040529 111.00169559 46.23828125 130.28515625 C53.64910738 137.49879854 61.21600133 140.01510543 71.375 140.3125 C82.4325372 140.09568555 91.91070024 136.46086669 100.1953125 129.03125 C110.27968966 118.44840553 114.2854122 106.04590626 114.31884766 91.72851562 C114.32889328 90.73248322 114.3389389 89.73645081 114.34928894 88.7102356 C114.37999727 85.44224587 114.39712173 82.17433761 114.4140625 78.90625 C114.43278407 76.63081162 114.45235822 74.3553801 114.4727478 72.07995605 C114.52397036 66.10913146 114.56364896 60.13828438 114.60089111 54.1673584 C114.64099271 48.06724531 114.69205695 41.96722496 114.7421875 35.8671875 C114.83882991 23.91151715 114.92225817 11.9558082 115 0 C127.21 0 139.42 0 152 0 C152 55.77 152 111.54 152 169 C140.45 169 128.9 169 117 169 C116.505 158.605 116.505 158.605 116 148 C115.05125 149.32 114.1025 150.64 113.125 152 C102.53815558 165.4549935 86.81608514 172.9306148 70 175 C51.52518664 176.4044023 33.94935264 172.9477892 19.5625 160.6875 C4.91228654 146.44557118 0.03416763 127.75081295 -0.31622601 107.82099152 C-0.35943039 101.82807484 -0.33120137 95.83661589 -0.29296875 89.84375 C-0.28736278 87.2434514 -0.28309742 84.6431496 -0.28010559 82.04284668 C-0.26989246 75.9411212 -0.24634408 69.83958612 -0.21605712 63.73793173 C-0.18228493 56.7800382 -0.16597034 49.82213592 -0.15097082 42.86418056 C-0.11978604 28.57601774 -0.06486705 14.2880487 0 0 Z " fill="#FFFFFF" transform="translate(3634,304)"/>
<path d="M0 0 C13.70503468 11.35500597 19.14502098 26.94335347 21.38671875 44.0703125 C21.63447816 48.13909373 21.64140817 52.18934291 21.61376953 56.26464844 C21.61406158 57.41732208 21.61435364 58.56999573 21.61465454 59.75759888 C21.61327418 63.52337481 21.59777437 67.28894663 21.58203125 71.0546875 C21.57829652 73.68312471 21.57545172 76.31156333 21.57345581 78.94000244 C21.56727374 85.12326514 21.55090793 91.30645596 21.53075683 97.4896872 C21.50829507 104.53697963 21.49737873 111.58427574 21.48736596 118.63159513 C21.46653824 133.11120973 21.42990365 147.5907468 21.38671875 162.0703125 C9.50671875 162.0703125 -2.37328125 162.0703125 -14.61328125 162.0703125 C-14.62786377 158.86675049 -14.64244629 155.66318848 -14.6574707 152.36254883 C-14.70795741 141.74144254 -14.77457708 131.12048069 -14.84899616 120.49951649 C-14.89359707 114.06422507 -14.93287577 107.62899546 -14.9597168 101.19360352 C-14.98585236 94.97539745 -15.02632697 88.75743058 -15.07646751 82.5393734 C-15.09306706 80.17493365 -15.10462414 77.8104526 -15.11089516 75.44596291 C-14.53060965 52.22775935 -14.53060965 52.22775935 -24.61328125 32.0703125 C-32.96025494 24.05792214 -41.75194517 22.57537416 -52.94433594 22.6484375 C-64.7090817 23.02083262 -73.19633058 28.27411104 -81.23828125 36.6328125 C-90.2556402 47.42475467 -92.89858542 60.53046245 -92.93212891 74.20166016 C-92.94719734 75.63762543 -92.94719734 75.63762543 -92.96257019 77.1026001 C-92.9931711 80.22985294 -93.01037255 83.35702111 -93.02734375 86.484375 C-93.04607401 88.66727414 -93.06564878 90.85016618 -93.08602905 93.03305054 C-93.13715997 98.75066933 -93.17688721 104.46831155 -93.21417236 110.18603516 C-93.25433188 116.03163355 -93.3053695 121.87713609 -93.35546875 127.72265625 C-93.45200244 139.17181407 -93.53547231 150.6210121 -93.61328125 162.0703125 C-105.82328125 162.0703125 -118.03328125 162.0703125 -130.61328125 162.0703125 C-130.61328125 106.3003125 -130.61328125 50.5303125 -130.61328125 -6.9296875 C-119.06328125 -6.9296875 -107.51328125 -6.9296875 -95.61328125 -6.9296875 C-95.28328125 0.3303125 -94.95328125 7.5903125 -94.61328125 15.0703125 C-93.33453125 13.3996875 -92.05578125 11.7290625 -90.73828125 10.0078125 C-69.17309782 -16.23375236 -26.9467568 -19.89790412 0 0 Z " fill="#FFFFFF" transform="translate(2582.61328125,310.9296875)"/>
<path d="M0 0 C6.35853204 5.11943349 11.36856385 11.69173475 15 19 C15 20.32 15 21.64 15 23 C10.92810634 24.85856907 6.85296785 26.70976667 2.7746582 28.55419922 C1.38767399 29.18271447 0.00159741 29.81323667 -1.38354492 30.44580078 C-3.37443721 31.35457784 -5.36847972 32.25609245 -7.36328125 33.15625 C-8.56251221 33.70087891 -9.76174316 34.24550781 -10.99731445 34.80664062 C-14 36 -14 36 -17 36 C-18.25390625 34.27734375 -18.25390625 34.27734375 -19.5625 31.9375 C-24.58833396 24.07689762 -31.89647342 19.49713921 -40.9453125 17.43359375 C-52.09285566 15.85126985 -62.45184239 16.36213466 -72.375 21.875 C-76.2823164 25.03806566 -78.53055738 27.44497133 -80 32.3125 C-80 38.07546466 -77.85505933 42.03251283 -73.9375 46.1875 C-62.88038541 53.00997496 -50.75245084 55.53697265 -38.26538086 58.47412109 C-16.80445707 63.55855007 2.87934279 70.42445027 15.23828125 89.95703125 C21.40284719 100.96358352 21.02522091 113.86329603 18.02734375 125.73046875 C14.01105568 138.51234371 5.29773783 148.23882939 -6.375 154.6953125 C-29.43664039 166.15749686 -56.00859598 168.75186265 -80.6875 160.75 C-91.96169265 156.84955936 -100.56375437 151.42218522 -109 143 C-109.7115625 142.30003906 -110.423125 141.60007812 -111.15625 140.87890625 C-116.55721423 135.21828028 -124 126.16391301 -124 118 C-119.80720634 116.11552568 -115.60806768 114.24630721 -111.40234375 112.39086914 C-109.97276578 111.75764523 -108.54500549 111.12030094 -107.11914062 110.47875977 C-105.06845362 109.55695025 -103.01167174 108.65018947 -100.953125 107.74609375 C-100.31755676 107.45657333 -99.68198853 107.16705292 -99.02716064 106.86875916 C-96.45640044 105.75387898 -94.49015216 104.96021775 -91.66577148 105.18945312 C-89.03320088 106.47043428 -88.21624598 108.54268931 -86.8125 111.0625 C-80.68248173 121.0969885 -72.46224539 127.25979668 -61.12084961 130.54418945 C-51.22192989 132.67165384 -38.21081955 132.21326597 -29 128 C-28.33871094 127.73316406 -27.67742188 127.46632813 -26.99609375 127.19140625 C-22.55634639 125.10592993 -20.52322364 122.43750644 -18.66015625 118.07421875 C-17.15686667 113.35086509 -17.57043831 109.46609053 -19.375 104.9375 C-24.04884525 96.58904539 -34.0678067 93.90943914 -42.71875 91.40625 C-47.00869978 90.22807316 -51.32924409 89.18777172 -55.65625 88.15625 C-57.05908228 87.81819764 -58.46191431 87.48014424 -59.86474609 87.14208984 C-62.6391739 86.47459585 -65.41784839 85.83262373 -68.20166016 85.20556641 C-84.97937148 81.2972325 -100.80700311 73.41232022 -111 59 C-117.15870454 47.00351597 -119.41380829 33.80591879 -115.4375 20.6875 C-109.7543152 5.88339973 -98.90735856 -2.79821861 -84.94921875 -9.3046875 C-57.92512159 -21.28223452 -23.97866724 -16.2918888 0 0 Z " fill="#FFFFFF" transform="translate(3936,314)"/>
<path d="M0 0 C56.1 0 112.2 0 170 0 C170 11.88 170 23.76 170 36 C148.22 36 126.44 36 104 36 C104 102.33 104 168.66 104 237 C91.46 237 78.92 237 66 237 C66 170.67 66 104.34 66 36 C44.22 36 22.44 36 0 36 C0 24.12 0 12.24 0 0 Z " fill="#FFFFFF" transform="translate(4608,236)"/>
<path d="M0 0 C56.1 0 112.2 0 170 0 C170 11.88 170 23.76 170 36 C148.22 36 126.44 36 104 36 C104 102.33 104 168.66 104 237 C91.46 237 78.92 237 66 237 C66 170.67 66 104.34 66 36 C44.22 36 22.44 36 0 36 C0 24.12 0 12.24 0 0 Z " fill="#FFFFFF" transform="translate(4333,236)"/>
<path d="M0 0 C12.54 0 25.08 0 38 0 C38 78.21 38 156.42 38 237 C25.46 237 12.92 237 0 237 C0 158.79 0 80.58 0 0 Z " fill="#FFFFFF" transform="translate(4537,236)"/>
<path d="M0 0 C4.35844365 3.58360922 7.03407234 7.97721703 8.8125 13.3125 C10.01351435 29.91012459 10.01351435 29.91012459 4.8125 36.3125 C-0.56575519 42.29778174 -6.24261469 45.50079451 -14.21875 46.58984375 C-21.50186512 46.95110938 -27.86905663 44.70079443 -33.5 40.125 C-39.68131981 34.16576354 -41.41336399 29.44778432 -41.6875 20.8125 C-41.41336399 12.17721568 -39.68131981 7.45923646 -33.5 1.5 C-22.89526086 -7.10162174 -11.44690545 -6.06012641 0 0 Z " fill="#FFFFFF" transform="translate(4025.1875,305.6875)"/>
<path d="M0 0 C4.47143783 3.46938199 7.69051763 7.20080189 9.09765625 12.74609375 C9.83863031 20.15583436 10.59047261 28.50517675 6.5 35.0703125 C1.46719785 41.08444098 -3.58648398 45.26397837 -11.5390625 46.15234375 C-19.19963374 46.44727103 -25.36638467 46.2556474 -31.84375 41.66796875 C-36.78023155 37.05933702 -40.61004102 31.51727813 -41.140625 24.671875 C-41.32271615 15.80691127 -41.00155649 10.10199343 -34.84375 3.55859375 C-25.04496487 -5.69489642 -11.59310708 -7.64145251 0 0 Z " fill="#FFFFFF" transform="translate(4024.90234375,429.25390625)"/>
</svg>